<svg width="32" height="30" viewBox="0 0 32 30" fill="none" xmlns="http://www.w3.org/2000/svg">
<path d="M20.7237 0.161846C22.5638 0.161846 24.0587 2.96299 24.0587 5.33702C24.0587 7.71105 22.5638 9.63305 20.7237 9.63305C18.8836 9.63305 17.3887 7.71105 17.3887 5.33702C17.3887 2.96299 18.8836 0.161846 20.7237 0.161846Z" fill="white"/>
<path d="M11.2491 0.161846C13.0892 0.161846 14.5841 2.96299 14.5841 5.33702C14.5841 7.71105 13.0892 9.63305 11.2491 9.63305C9.40895 9.63305 7.91406 7.71105 7.91406 5.33702C7.91406 2.96299 9.40895 0.161846 11.2491 0.161846Z" fill="white"/>
<path d="M1.26525 12.6798C0.482212 10.7222 0.823902 7.90681 2.38642 7.28038C3.94538 6.65751 6.13433 8.46205 6.91737 10.4232C7.70041 12.3808 7.06686 14.4737 5.5079 15.0965C3.94538 15.7194 2.04473 14.6374 1.26525 12.6798Z" fill="white"/>
<path d="M30.7077 12.6798C29.9282 14.6374 28.0275 15.7194 26.465 15.0965C24.9061 14.4737 24.2725 12.3808 25.0555 10.4232C25.8386 8.46205 28.0275 6.65751 29.5865 7.28038C31.149 7.90681 31.4907 10.7222 30.7077 12.6798Z" fill="white"/>
<path fill-rule="evenodd" clip-rule="evenodd" d="M27.0843 28.1946C26.0913 29.4973 24.2084 30.1487 22.7385 29.4439C21.8629 29.0239 21.1546 28.1768 20.19 28.095C19.3038 28.0202 18.5207 28.6182 17.7804 29.1165C17.2465 29.4795 16.6023 29.807 15.9865 29.8105C15.3708 29.807 14.7266 29.4795 14.1927 29.1165C13.4523 28.6182 12.6693 28.0202 11.783 28.095C10.8185 28.1768 10.1102 29.0239 9.2346 29.4439C7.76463 30.1487 5.88178 29.4973 4.88874 28.1946C3.8957 26.8919 3.69994 25.0981 4.05587 23.4964C4.41536 21.8912 5.26602 20.4461 6.20923 19.1043C8.41953 15.965 11.9752 12.7937 15.9865 12.7937C20.0156 12.7937 23.5535 15.965 25.7638 19.1043C26.707 20.4461 27.5577 21.8912 27.9172 23.4964C28.2731 25.0981 28.0774 26.8919 27.0843 28.1946ZM19.8733 19.3392C19.6882 18.5882 19.0938 17.9261 18.3641 17.8336C17.5206 17.7268 16.5418 18.3177 15.9865 19.001C15.4313 18.3177 14.4525 17.7268 13.6089 17.8336C12.8793 17.9261 12.2849 18.5882 12.0998 19.3392C11.9076 20.1258 12.1034 20.8768 12.4771 21.5637C12.9327 22.393 13.6481 23.1262 14.2567 23.6957C14.5806 24.0018 14.9223 24.2866 15.2782 24.5499C15.2782 24.5523 15.2794 24.5535 15.2818 24.5535C15.6982 24.8632 16.2748 24.8632 16.6913 24.5535C16.6936 24.5535 16.6948 24.5523 16.6948 24.5499C17.0508 24.2866 17.3924 24.0018 17.7163 23.6957C18.325 23.1262 19.0404 22.393 19.496 21.5637C19.8697 20.8768 20.0655 20.1258 19.8733 19.3392Z" fill="white"/>
</svg>
